<svg width="48" height="48" viewBox="0 0 48 48" fill="none" xmlns="http://www.w3.org/2000/svg">
<path d="M8.3999 16.9236C9.82365 15.667 11.4003 14.5796 13.0983 13.6929M39.5999 16.9236C35.4424 13.2541 29.9812 11.0275 23.9999 11.0275C22.0707 11.0275 20.1956 11.2592 18.4009 11.6962M13.0983 22.2143C14.683 20.8197 16.5373 19.7241 18.5729 19.0158M34.9026 22.2143C32.203 19.8385 28.7212 18.3306 24.8933 18.1266M17.7599 27.5366C19.4229 26.0688 21.6074 25.1781 23.9999 25.1781C24.4064 25.1781 24.8069 25.2039 25.1999 25.2537M10.097 9.59961L34.7999 34.3026M26.3588 34.6119C26.3588 35.9144 25.3029 36.9703 24.0003 36.9703C22.6978 36.9703 21.6419 35.9144 21.6419 34.6119C21.6419 33.3093 22.6978 32.2534 24.0003 32.2534C25.3029 32.2534 26.3588 33.3093 26.3588 34.6119Z" stroke="#5666FF" stroke-width="2" stroke-linecap="round" stroke-linejoin="round"/>
</svg>
